<svg xmlns="http://www.w3.org/2000/svg" viewBox="0 0 173.584 173.584">
  <path d="M86.791 0C38.857 0 0 38.86 0 86.793c0 47.935 38.857 86.791 86.791 86.791s86.793-38.856 86.793-86.791C173.584 38.86 134.724 0 86.791 0zm.004 7.209c43.892 0 79.582 35.689 79.582 79.582 0 43.895-35.69 79.584-79.582 79.584-43.896 0-79.586-35.69-79.586-79.584 0-43.893 35.69-79.582 79.586-79.582zm0 10c-38.492 0-69.586 31.093-69.586 69.582 0 38.49 31.094 69.584 69.586 69.584 38.488 0 69.582-31.094 69.582-69.584s-31.094-69.582-69.582-69.582zM46.418 48.418c.413-.005.82.009 1.213.035 14.692.017 29.385-.033 44.076.026 3.468-.14 6.875 2.774 6.264 6.427-.161 3.656-4.083 5.402-7.315 5.139H75.545c-.02 14.549.04 29.098-.031 43.646.039 3.415-2.155 7.07-5.813 7.41a8.16 8.16 0 0 1-1.113.075c-3.655.215-6.758-2.951-6.93-6.524-.263-6.074-.057-12.169-.123-18.252V60.045c-5.652-.056-11.313.117-16.959-.1-3.734-.07-6.402-4.031-5.142-7.535.881-3.075 4.09-3.96 6.984-3.992zm42.598 29.994h44.574c2.421 0 4.219.537 5.4 1.61 1.181 1.07 1.772 2.475 1.772 4.21 0 1.737-.598 3.13-1.793 4.188-1.2 1.057-2.992 1.586-5.38 1.586h-15.282v42.598c0 2.893-.648 5.039-1.942 6.435-1.296 1.396-2.967 2.098-5.017 2.098-2.08 0-3.776-.709-5.088-2.121-1.31-1.414-1.961-3.552-1.961-6.412V90.006H89.016c-2.393 0-4.169-.529-5.332-1.586-1.164-1.058-1.743-2.451-1.743-4.188 0-1.797.602-3.214 1.815-4.257 1.21-1.042 2.96-1.563 5.26-1.563z" fill="#2899d4"/>
</svg>
